<?xml version="1.0" encoding="UTF-8"?>
<svg id="Layer_2" data-name="Layer 2" xmlns="http://www.w3.org/2000/svg" xmlns:xlink="http://www.w3.org/1999/xlink" viewBox="0 0 298.11 279.41">
  <defs>
    <style>
      .cls-1, .cls-2, .cls-3 {
        fill: #fff;
      }

      .cls-2, .cls-4 {
        stroke-width: 3px;
      }

      .cls-2, .cls-4, .cls-5, .cls-3, .cls-6 {
        stroke: #fff;
        stroke-miterlimit: 10;
      }

      .cls-4 {
        fill: none;
      }

      .cls-5 {
        fill: #f08425;
      }

      .cls-5, .cls-3, .cls-6 {
        stroke-width: 2px;
      }

      .cls-7 {
        clip-path: url(#clippath);
      }

      .cls-6 {
        fill: #fbb040;
      }
    </style>
    <clipPath id="clippath">
      <rect class="cls-2" x="10.87" y="1.52" width="276.37" height="276.37" rx="138.18" ry="138.18" transform="translate(-49.88 93.24) rotate(-30)"/>
    </clipPath>
  </defs>
  <g id="Layer_15" data-name="Layer 15">
    <g>
      <rect class="cls-1" x="10.87" y="1.52" width="276.37" height="276.37" rx="138.18" ry="138.18" transform="translate(-49.88 93.24) rotate(-30)"/>
      <g class="cls-7">
        <g>
          <path class="cls-1" d="M149.18,276.41c-48.75,0-94.15-26.2-118.5-68.37-18.25-31.62-23.1-68.45-13.66-103.72S49.09,39.59,80.71,21.33C101.49,9.34,125.07,3,148.92,3c48.75,0,94.15,26.2,118.5,68.36,37.68,65.27,15.24,149.03-50.03,186.71-20.78,12-44.36,18.33-68.21,18.33Z"/>
          <path class="cls-1" d="M148.93,1.5v3c23.33,0,46.41,6.07,66.73,17.55,20.93,11.82,38.38,29.13,50.46,50.07,18.05,31.27,22.85,67.7,13.5,102.58-9.35,34.88-31.71,64.03-62.99,82.08-20.55,11.86-43.88,18.13-67.46,18.13s-46.41-6.07-66.74-17.54c-20.93-11.82-38.38-29.13-50.47-50.07-18.05-31.27-22.85-67.7-13.5-102.58,9.35-34.88,31.71-64.03,62.99-82.08,20.55-11.86,43.87-18.13,67.46-18.13V1.5M148.92,1.5c-23.44,0-47.2,5.97-68.96,18.54h0C13.87,58.19-8.78,142.71,29.38,208.8h0c25.6,44.33,72.04,69.11,119.8,69.11,23.44,0,47.2-5.97,68.96-18.54h0c66.09-38.16,88.74-122.67,50.58-188.76h0C243.13,26.28,196.68,1.5,148.92,1.5h0Z"/>
        </g>
        <g>
          <g>
            <path class="cls-3" d="M57.28,97.03c5.4-2.63,8.72-2.78,15.56-3.69,6.85-.91,14.19-1.77,18.54-1.63,4.3.14,14.6,1.05,14.81,1.07-1.4-.05-2.74-.11-4-.17-1.39.06-3.53.26-6.01.98,0,0-2.67.86-5.38,2.26-1.64.85-6.67,4.13-12.71,8.19-5.01-.24-11.79-.42-13.85.17-3.39.97-18.33,15.57-23.26,16.56-4.92.99-9.54-.86-9.54-.86,0,0,20.44-20.25,25.84-22.88Z"/>
            <path class="cls-6" d="M33.77,117.63c5.51-5.37,19.23-18.51,23.51-20.6,3.2-1.56,5.68-2.24,8.58-2.73-2.61.15-5.26.29-5.84.25-1.24-.09-4.94.79-7.15,2.51-2.21,1.72-28.28,16.03-28.28,16.03,0,0,3.96,5.17,9.18,4.54Z"/>
            <path class="cls-5" d="M74.79,106.27c-3.43-.4-7.65-.7-12.65-.87.89-.62,1.62-1.04,2.1-1.18,2.06-.59,8.84-.4,13.85-.17-1.07.72-2.18,1.46-3.3,2.22ZM165.34,99.57c-3.74-.72-14.05-.81-18.66,7.55-4.61,8.35-7.56,9.83-14.87,8.86-7.31-.97-20.47-6.1-25.28-6.3,0,0-9.98-2.08-18.3.55,8.52,4.28,23.61,12.55,23.61,12.55-4,6.17-6.88,4.86-18.72,6.41-11.84,1.54-12.19,13.55-9.67,14.74,2.52,1.2,8.12.6,17.14-4.42,9.02-5.02,12.91-6.17,22.14-6.31,9.23-.14,6.71-1.3,13.26-5.42,6.55-4.12,13.82-7.8,23.86-9.11,10.04-1.31,26.42.11,40.52,1.39,14.1,1.29,95.03,16.83,95.03,16.83,0,0-126.32-36.61-130.05-37.33ZM35.12,107.27c7.51-4.18,16.5-9.23,17.75-10.21,1-.78,2.3-1.38,3.54-1.8l-31.88,4.32c1.21,2.39,3.89,6.57,8.24,7.44.77.15,1.55.22,2.35.24Z"/>
            <path class="cls-3" d="M57.28,97.03c5.4-2.63,8.72-2.78,15.56-3.69,6.85-.91,14.19-1.77,18.54-1.63,4.3.14,14.6,1.05,14.81,1.07-1.4-.05-2.74-.11-4-.17-1.39.06-3.53.26-6.01.98,0,0-2.67.86-5.38,2.26-1.64.85-6.67,4.13-12.71,8.19-5.01-.24-11.79-.42-13.85.17-3.39.97-18.33,15.57-23.26,16.56-4.92.99-9.54-.86-9.54-.86,0,0,20.44-20.25,25.84-22.88Z"/>
            <path class="cls-6" d="M57.28,97.03c5.4-2.63,8.72-2.78,15.56-3.69,6.85-.91,14.19-1.77,18.54-1.63,4.3.14,14.6,1.05,14.81,1.07-1.4-.05-2.74-.11-4-.17-1.39.06-3.53.26-6.01.98,0,0-2.67.86-5.38,2.26-1.64.85-6.67,4.13-12.71,8.19-5.01-.24-11.79-.42-13.85.17-3.39.97-18.33,15.57-23.26,16.56-4.92.99-9.54-.86-9.54-.86,0,0,20.44-20.25,25.84-22.88Z"/>
            <path class="cls-6" d="M297.07,87.54l-1.68,49.37s-126.31-36.61-130.05-37.33c-3.74-.72-14.05-.81-18.66,7.55-4.61,8.35-7.56,9.83-14.88,8.86-7.31-.97-20.47-6.1-25.28-6.3,0,0-11.28-2.35-19.85,1.11-8.58,3.46-19.33,11.12-20.51,11.81-1.18.69-9.15,7.73-17.97,1.89,0,0,37.51-25.99,42.61-28.62,2.71-1.4,5.38-2.26,5.38-2.26,2.48-.72,4.61-.92,6.01-.98,11.07.49,27.3.95,47.04.55,13.22-.27,23.27-.84,40.29-1.81,29.36-1.68,34.65-2.56,51.16-3.38,13.4-.67,32.68-1.22,56.39-.44Z"/>
          </g>
          <g>
            <path class="cls-5" d="M273.57,179.83c-1.2-2.39-3.89-6.57-8.24-7.44-3.38-.67-6.86.11-11.97.9-4.7,4.48-9.28,8.63-12.42,10.96l32.62-4.42ZM204.99,150.22c-11.84,1.54-14.72.24-18.72,6.41,0,0,15.09,8.27,23.61,12.55-8.32,2.63-18.3.55-18.3.55-4.81-.2-17.97-5.33-25.28-6.3-7.31-.97-10.27.51-14.88,8.86-4.61,8.35-14.92,8.27-18.66,7.55-3.74-.72-130.05-37.33-130.05-37.33,0,0,80.93,15.54,95.03,16.83,14.1,1.29,30.47,2.7,40.52,1.39,10.04-1.31,17.3-4.99,23.86-9.11,6.55-4.12,4.03-5.28,13.26-5.42,9.23-.14,13.12-1.28,22.14-6.31,9.02-5.02,14.62-5.62,17.14-4.42,2.52,1.2,2.17,13.2-9.67,14.74ZM233.86,175.2c-2.06.59-8.84.4-13.85.17,1.07-.72,2.18-1.46,3.3-2.22,3.43.4,7.65.7,12.65.87-.89.62-1.62,1.04-2.1,1.18Z"/>
            <path class="cls-6" d="M245.23,182.35c-2.21,1.72-5.91,2.61-7.15,2.51s-11.58.61-11.58.61h0c2.6-1.28,5.48-2.85,8.25-4.39,4.96-2.76,7.46-3.83,10.72-7.81.3-.36.64-.9,1.03-1.58,4.19-2.57,12.37-8.64,16.95-9.76,5.66-1.39,10.07,4.39,10.07,4.39-1.25.4-26.07,14.31-28.28,16.03Z"/>
            <path class="cls-6" d="M240.82,182.38c-5.4,2.63-8.72,2.78-15.56,3.69-6.85.91-14.19,1.77-18.54,1.63-4.3-.14-14.6-1.05-14.81-1.07,1.4.05,2.74.11,4,.17,1.39-.06,3.53-.26,6.01-.98,0,0,2.67-.86,5.38-2.26,1.64-.85,6.67-4.13,12.71-8.19,5.01.24,11.79.42,13.85-.17,3.39-.97,18.33-15.57,23.26-16.56,4.92-.99,9.54.86,9.54.86,0,0-20.44,20.25-25.84,22.88Z"/>
            <path class="cls-6" d="M1.03,191.88l1.68-49.37s126.31,36.61,130.05,37.33c3.74.72,14.05.81,18.66-7.55,4.61-8.35,7.56-9.83,14.88-8.86,7.31.97,20.47,6.1,25.28,6.3,0,0,11.28,2.35,19.85-1.11,8.58-3.46,19.33-11.12,20.51-11.81,1.18-.69,9.15-7.73,17.97-1.89,0,0-37.51,25.99-42.61,28.62-2.71,1.4-5.38,2.26-5.38,2.26-2.48.72-4.61.92-6.01.98-11.07-.49-27.3-.95-47.04-.55-13.22.27-23.27.84-40.29,1.81-29.36,1.68-34.65,2.56-51.16,3.38-13.4.67-32.68,1.22-56.39.44Z"/>
          </g>
        </g>
      </g>
      <rect class="cls-4" x="10.87" y="1.52" width="276.37" height="276.37" rx="138.18" ry="138.18" transform="translate(-49.88 93.24) rotate(-30)"/>
    </g>
  </g>
</svg>