<?xml version="1.0" encoding="UTF-8"?>
<svg id="Layer_2" data-name="Layer 2" xmlns="http://www.w3.org/2000/svg" viewBox="0 0 310.23 156.58">
  <defs>
    <style>
      .cls-1 {
        fill: #fff;
      }
    </style>
  </defs>
  <g id="Layer_15" data-name="Layer 15">
    <g>
      <g>
        <g>
          <path class="cls-1" d="M155.31,8.71c1.98,0,3.77.22,5.14.53,4.03.92,128.87,41.41,144.89,46.61l3.5-53.18c-21.11-1.33-42.2-1.82-62.7-1.45-8.82.16-14.72.42-22.19.74-8.16.36-18.32.8-36,1.25-18.36.47-30.49.78-45.85.6-17.9-.2-35.87-.98-53.4-2.31-2.21.03-4.4.32-6.51.86h0s-2.98.87-5.97,2.29c-5.11,2.43-39.71,24.72-47.65,29.84,7.54,4.12,14.47-.5,16.86-2.08.34-.22.59-.39.75-.48.21-.11.83-.5,1.61-.99,4.19-2.61,14.01-8.73,22.26-11.75,9.75-3.58,21.88-.91,23.19-.61,2.91.24,8.03,1.94,13.46,3.75,5.41,1.8,11.01,3.66,15.03,4.32,7.51,1.24,10.52.21,15.95-8.94,4.21-7.09,11.81-9,17.64-9Z"/>
          <path class="cls-1" d="M9.79,28.21c1.9.54,5.02,1.15,8.25.6,2.88-.49,10.01-5.97,15.75-10.37,5.71-4.39,9.31-7.1,11.16-7.57,1.97-.5,7.26-.42,15.72.24,8.03-5.02,12.78-7.87,14.5-8.69,1.96-.93,3.87-1.63,5.09-2.03-1.47-.14-2.8-.26-3.83-.32-4.89-.32-13.31.42-20.9,1.18-.95.1-1.84.18-2.69.26-6.09.58-9.45.9-14.73,3.26h0c-5.09,2.28-22.98,18.54-28.31,23.43Z"/>
          <g>
            <path class="cls-1" d="M9.69,12.93c.74.17,1.5.28,2.34.33,7.21-3.74,14.89-7.82,18.25-9.75L2.24,6.42c1.42,2.53,3.86,5.68,7.45,6.52h0Z"/>
            <path class="cls-1" d="M53.5,13.06c1.18.14,2.3.29,3.37.44.1-.06.21-.13.31-.19-1.19-.09-2.44-.18-3.68-.24Z"/>
            <path class="cls-1" d="M75.7,20.26c9.6,5.33,23.37,13.45,23.52,13.54l1.14.67-.75,1.08c-4.09,5.88-7.29,6.08-15.04,6.56-2.09.13-4.46.28-7.33.56-9.07.89-11.1,7.51-11.5,9.52-.54,2.7.1,4.38.44,4.56,2.41,1.24,8.53.73,18.49-4.4,10.7-5.52,15.32-6.67,25.94-6.5,6.9.11,7.57-.42,9.8-2.19,1.04-.82,2.45-1.94,4.81-3.32,7.01-4.1,15.81-8.45,27.91-9.64,11.09-1.09,28.19.82,46.21,3.05,10.64,1.31,53.78,10.66,82.07,16.91-40.88-13.24-118.47-38.35-121.51-39.04h0c-.14-.03-13.97-3.04-20.13,7.32-5.65,9.51-9.44,11.59-18.46,10.1-4.21-.69-9.9-2.58-15.4-4.41-5.34-1.77-10.38-3.45-12.96-3.63l-.2-.03c-.1-.02-8.74-2.06-17.05-.72Z"/>
          </g>
          <path class="cls-1" d="M1.89,21.15c1.43,1.51,4.27,3.96,7.76,3.86,7.73-7.06,20.61-18.52,26.27-21.85-.94.36-1.86.81-2.62,1.37-2.47,1.8-24.99,13.53-31.42,16.62Z"/>
        </g>
        <g>
          <path class="cls-1" d="M155.09,111.07c-1.98,0-3.77-.22-5.14-.53-4.03-.92-128.87-41.41-144.89-46.61l-3.5,53.18c21.11,1.33,42.2,1.82,62.7,1.45,8.82-.16,14.72-.42,22.19-.74,8.16-.36,18.32-.8,36-1.25,18.36-.47,30.49-.78,45.85-.6,17.9.2,35.87.98,53.4,2.31,2.21-.03,4.4-.32,6.51-.86h0s2.98-.87,5.97-2.29c5.11-2.43,39.71-24.72,47.65-29.84-7.54-4.12-14.47.5-16.86,2.08-.34.22-.59.39-.75.48-.21.11-.83.5-1.61.99-4.19,2.61-14.01,8.73-22.26,11.75-9.75,3.58-21.88.91-23.19.61-2.91-.24-8.03-1.94-13.46-3.75-5.41-1.8-11.01-3.66-15.03-4.32-7.51-1.24-10.52-.21-15.95,8.94-4.21,7.09-11.81,9-17.64,9Z"/>
          <path class="cls-1" d="M300.61,91.57c-1.9-.54-5.02-1.15-8.25-.6-2.88.49-10.01,5.97-15.75,10.37-5.71,4.39-9.31,7.1-11.16,7.57-1.97.5-7.26.42-15.72-.24-8.03,5.02-12.78,7.87-14.5,8.69-1.96.93-3.87,1.63-5.09,2.03,1.47.14,2.8.26,3.83.32,4.89.32,13.31-.42,20.9-1.18.95-.1,1.84-.18,2.69-.26,6.09-.58,9.45-.9,14.73-3.26h0c5.09-2.28,22.98-18.54,28.31-23.43Z"/>
          <g>
            <path class="cls-1" d="M300.7,106.85c-.74-.17-1.5-.28-2.34-.33-7.21,3.74-14.89,7.82-18.25,9.75l28.04-2.9c-1.42-2.53-3.86-5.68-7.45-6.52h0Z"/>
            <path class="cls-1" d="M256.89,106.73c-1.18-.14-2.3-.29-3.37-.44-.1.06-.21.13-.31.19,1.19.09,2.44.18,3.68.24Z"/>
            <path class="cls-1" d="M234.69,99.52c-9.6-5.33-23.37-13.45-23.52-13.54l-1.14-.67.75-1.08c4.09-5.88,7.29-6.08,15.04-6.56,2.09-.13,4.46-.28,7.33-.56,9.07-.89,11.1-7.51,11.5-9.52.54-2.7-.1-4.38-.44-4.56-2.41-1.24-8.53-.73-18.49,4.4-10.7,5.52-15.32,6.67-25.94,6.5-6.9-.11-7.57.42-9.8,2.19-1.04.82-2.45,1.94-4.81,3.32-7.01,4.1-15.81,8.45-27.91,9.64-11.09,1.09-28.19-.82-46.21-3.05-10.64-1.31-53.78-10.66-82.07-16.91,40.88,13.24,118.47,38.35,121.51,39.04h0c.14.03,13.97,3.04,20.13-7.32,5.65-9.51,9.44-11.59,18.46-10.1,4.21.69,9.9,2.58,15.4,4.41,5.34,1.77,10.38,3.45,12.96,3.63l.2.03c.1.02,8.74,2.06,17.05.72Z"/>
          </g>
          <path class="cls-1" d="M308.5,98.63c-1.43-1.51-4.27-3.96-7.76-3.86-7.73,7.06-20.61,18.52-26.27,21.85.94-.36,1.86-.81,2.62-1.37,2.47-1.8,24.99-13.53,31.42-16.62Z"/>
        </g>
      </g>
      <g>
        <path class="cls-1" d="M201.71,132.31v.42c1.16.25,2.88.56,2.88,2.22v15.45l-11.34-15.83c-1.01-1.41-2.64-2.25-4.38-2.25h-2.58v.42c1.2.28,2.53.56,2.53,2.22v18.36c0,.96-.45,1.46-1.07,1.77-.91.45-2.01.45-2.92,0-.62-.3-1.07-.8-1.07-1.77v-18.08c0-1.61-1.31-2.92-2.92-2.92h-2.92v.42c1.16.28,2.53.56,2.53,2.22v18.08c0,1.61,1.31,2.92,2.92,2.92h9.11v-.42c-1.16-.21-2.88-.56-2.88-2.22v-15.79c0-.84,1.07-1.18,1.56-.5l13.26,18.55c.22.31.57.49.95.49v-21.11c0-1.65,1.34-1.94,2.53-2.22v-.42h-6.19Z"/>
        <g>
          <path class="cls-1" d="M40.04,144.14c0-7.35,5.77-12.14,12.45-12.14s12.45,4.78,12.45,12.14-5.77,12.14-12.45,12.14-12.45-4.78-12.45-12.14ZM52.5,155.57c6.33,0,8.62-4.43,8.62-11.43s-2.29-11.43-8.62-11.43-8.62,4.43-8.62,11.43,2.29,11.43,8.62,11.43Z"/>
          <path class="cls-1" d="M11.82,143.26c2.6-.42,5.31-2.43,5.31-5.77s-2.74-5.17-8.09-5.17H0v.42c1.2.28,2.53.56,2.53,2.22v18.36c0,1.65-1.34,1.94-2.53,2.22v.42h10.38c5.14,0,8.3-2.46,8.3-6.44,0-3.41-2.36-6.02-6.86-6.26ZM8.3,133.02c3.27,0,5.28,1.58,5.28,4.78,0,1.39-.38,2.58-1.05,3.48s-1.79,1.45-2.94,1.61c-1.46.21-2.75.85-3.68,1.78v-11.65h2.39ZM10.2,155.29h-1.76c-1.48.01-2.97.03-4.45.04,0,0,.01,0,.02,0,1.14-.42,1.9-1.5,1.9-2.71v-6.68s0,0,0,0c.3-.29.59-.52.83-.68.35-.24.78-.49,1.28-.7.11-.05.22-.09.33-.13,1.58-.56,3.36-.45,4.73.51.27.19.53.41.78.69,1.24,1.37,1.23,3.02,1.23,3.97,0,3.55-1.72,5.7-4.89,5.7Z"/>
          <path class="cls-1" d="M33.45,153.46l-3.91-6.68c-.13-.19-.45-.6-1.02-.83-.07-.03-1.12-.43-2.05.21,0,0-.01,0-.02.01-.49.35-.75.94-.74,1.54.02,1.85.03,3.71.02,5.61,0,0,0,.02,0,.03,0,1.45-1.19,2.61-2.64,2.61h-3.2c-.03-.25-.02-.17-.05-.41,1.21-.29,2.58-.55,2.58-2.23v-18.36c0-1.65-1.34-1.94-2.53-2.22v-.42h9.08c6.05,0,8.87,2.32,8.87,5.95,0,5.1-4.93,6.3-6.61,6.51.56.32,1.51,1.02,2.39,2.53l3.03,5.21c.88,1.51,1.62,2.43,3.2,2.43.42,0,.91-.07,1.48-.21v.53c-.84.49-2.25.88-3.52.88-1.69,0-3.2-.7-4.36-2.67ZM27.74,144.67c1.03-.4,1.56-.25,2.86-.61.97-.27,1.8-.5,2.51-1.13,1.51-1.34,1.44-3.62,1.4-4.46-.05-1.05-.11-2.49-1.16-3.72-1.78-2.1-4.83-1.71-5.11-1.67h-2.5c-.01,4.31-.02,8.62-.04,12.93.41-.41,1.08-.98,2.04-1.35Z"/>
          <path class="cls-1" d="M141.15,153.46l-3.91-6.68c-.13-.19-.45-.6-1.02-.83-.07-.03-1.12-.43-2.05.21,0,0-.01,0-.02.01-.49.35-.75.94-.74,1.54.02,1.85.03,3.71.02,5.61,0,0,0,.02,0,.03,0,1.45-1.19,2.61-2.64,2.61h-3.2c-.03-.25-.02-.17-.05-.41,1.21-.29,2.58-.55,2.58-2.23v-18.36c0-1.65-1.34-1.94-2.53-2.22v-.42h9.08c6.05,0,8.87,2.32,8.87,5.95,0,5.1-4.93,6.3-6.61,6.51.56.32,1.51,1.02,2.39,2.53l3.03,5.21c.88,1.51,1.62,2.43,3.2,2.43.42,0,.91-.07,1.48-.21v.53c-.84.49-2.25.88-3.52.88-1.69,0-3.2-.7-4.36-2.67ZM135.44,144.67c1.03-.4,1.56-.25,2.86-.61.97-.27,1.8-.5,2.51-1.13,1.51-1.34,1.44-3.62,1.4-4.46-.05-1.05-.11-2.49-1.16-3.72-1.78-2.1-4.83-1.71-5.11-1.67h-2.5c-.01,4.31-.02,8.62-.04,12.93.41-.41,1.08-.98,2.04-1.35Z"/>
          <path class="cls-1" d="M106.1,132.74v-.42h-3.22c-1.45,0-2.62,1.17-2.62,2.62,0,1.97,0,3.93,0,5.9h0c-.27,1.06-1.49,1.57-3.29,2.09l-6.05,1.75c-1.79.52-3.02,1.57-3.29,2.77,0,0,0,0,0,0v-12.49c0-1.65,1.37-1.94,2.53-2.22v-.42h-21.59c-1.23,0-2.22.99-2.22,2.22v3.66h.42c.46-2.41,1.92-5.5,5.57-5.45,1.21.01,2.17,1.04,2.17,2.25v18.01c0,2.18-2.32,2.25-3.52,2.53v.42h10.34v-.42c-1.2-.28-3.52-.35-3.52-2.53v-18.52c0-.96-.78-1.75-1.75-1.74-.11,0,1.23,0,4,0h1.29c.61,0,1.22.1,1.77.35.68.31,1.19.84,1.19,1.86v18.36c0,1.65-1.34,1.94-2.53,2.22v.42h3.22c1.43,0,2.59-1.16,2.6-2.58l.02-5.44h0c.27-1.07,1.5-1.56,3.29-2.08l6.05-1.75c1.79-.52,3.02-1.57,3.29-2.78,0,0,0,0,0,0v11.99c0,1.65-1.34,1.94-2.53,2.22v.42h8.37v-.42c-1.16-.28-2.53-.56-2.53-2.22v-18.36c0-1.65,1.37-1.94,2.53-2.22Z"/>
          <path class="cls-1" d="M110.72,153.32c0-5.48,0-10.95-.01-16.43,0-2.53,2.05-4.58,4.57-4.58h5.01c.59-.01,1.18-.03,1.77-.04,1.51-.04,2.76,1.18,2.76,2.69v3.05s-.42,0-.42,0c-.58-2.44-1.25-6.04-8.69-4.71-.93.17-1.69,1.08-1.69,2.02v7.54s2.3,0,2.3,0c1.51,0,2.36.24,2.53-1.45h.42v3.62h-.42c-.18-1.69-1.02-1.47-2.53-1.47h-2.3c-.02,3.29-.04,6.58-.06,9.87,0,1-.82,1.81-1.82,1.81h0,7.16c5.07,0,5.28-3.31,5.77-4.61h.42v2.62c0,1.49-1.21,2.7-2.7,2.7h-14.61v-.42c1.2-.28,2.53-.56,2.53-2.22Z"/>
          <path class="cls-1" d="M152.13,155.04c-.91,0-1.3.49-1.44,1.23h-.42v-6.83h.42c.42,2.05,1.87,4.36,4.29,5.42,1.39.61,2.6.6,2.92.6.77-.02,2.81-.07,4.24-1.7.15-.18,1.52-1.77,1.18-3.89-.21-1.34-.99-2.2-1.27-2.5-1.16-1.25-2.31-1.3-4.84-2.16-3.22-1.1-4.83-1.65-5.9-3.15-1.29-1.8-1.08-3.92-1.03-4.33.05-.43.28-2.04,1.54-3.5,2.06-2.39,5.17-2.39,6.03-2.35,1.25.06,2.44.44,2.94.61.82.27,1.62.62,2.67,1.07.6.26,1.44.65,1.44.65,0,0,.45.64.26,1.18-.27.78-1.04,1.92-1.54,2.48-.59-2.31-1.6-3.78-2.94-4.53-1.07-.6-2.11-.61-2.53-.61-.33,0-2.66.07-3.93,1.82-.96,1.32-1.16,3.39-.33,4.86,1.98,3.52,8.37.89,11.68,5.09,1.35,1.72,1.56,3.78,1.58,4.04.06.61.2,2.48-.92,4.36-1.58,2.65-4.39,3.25-4.88,3.34,0,0-2.64.74-5.29,0-.76-.21-1.04-.31-1.04-.31-1.46-.5-1.93-.9-2.88-.9Z"/>
        </g>
        <g>
          <path class="cls-1" d="M255.25,153.46l-3.91-6.68c-.13-.19-.45-.6-1.02-.83-.07-.03-1.12-.43-2.05.21,0,0-.01,0-.02.01-.49.35-.75.94-.74,1.54.02,1.85.03,3.71.02,5.61,0,0,0,.02,0,.03,0,1.45-1.19,2.61-2.64,2.61h-3.2c-.03-.25-.02-.17-.05-.41,1.21-.29,2.58-.55,2.58-2.23v-18.36c0-1.65-1.34-1.94-2.53-2.22v-.42h9.08c6.05,0,8.87,2.32,8.87,5.95,0,5.1-4.93,6.3-6.61,6.51.56.32,1.51,1.02,2.39,2.53l3.03,5.21c.88,1.51,1.62,2.43,3.2,2.43.42,0,.91-.07,1.48-.21v.53c-.84.49-2.25.88-3.52.88-1.69,0-3.2-.7-4.36-2.67ZM249.54,144.67c1.03-.4,1.56-.25,2.86-.61.97-.27,1.8-.5,2.51-1.13,1.51-1.34,1.44-3.62,1.4-4.46-.05-1.05-.11-2.49-1.16-3.72-1.78-2.1-4.83-1.71-5.11-1.67h-2.5c-.01,4.31-.02,8.62-.04,12.93.41-.41,1.08-.98,2.04-1.35Z"/>
          <path class="cls-1" d="M219.68,155.95c-.55,0-.92-.57-.7-1.07l1.3-2.96,7.81-19.7c.41.08.75.35.92.74l8.3,18.97c1.13,2.53,2.01,3.38,3.31,3.62v.42h-9.57v-.42c2.99-.35,3.66-1.55,2.46-4.33-.8-1.87-2.14-5.04-2.94-6.91l.77,1.82c.26.63-.2,1.32-.88,1.32h-4.66c-1.75,0-3.32,1.06-3.99,2.68-.13.31-.27.59-.47,1.15-.61,1.67-.94,2.56-.57,3.26.09.16.47.81,1.88,1.01,0,.14-.01.28-.02.41l-2.95-.02ZM230.16,143.48l-2.59-6c-.16-.36-.67-.35-.81.01-1.44,3.66-3.06,7.81-4.46,11.37l.33-.85c.31-.79,1.07-1.31,1.92-1.31h3.49c1.66,0,2.77-1.7,2.12-3.22Z"/>
          <path class="cls-1" d="M291.36,155.53v.42h-8.37v-.42c1.37-.32,2.93-.65,2.44-3.05.03-5.57.07-11.14.1-16.71,0-.41.13-.82.41-1.12s.7-.5,1.15-.51c0,0,0,0,.01,0h-.1c-.72.02-1.36.46-1.63,1.12-1.36,3.28-2.73,6.57-4.09,9.85-1.95,4.69-3.48,8.39-3.48,8.39,0,0,0,0,0,0-.69,1.09-2.32.96-2.81-.24l-7.64-18.43v18.47c0,1.65,1.72,2.01,2.88,2.22v.42h-6.19v-.42c1.2-.28,2.53-.56,2.53-2.22v-18.36c0-1.65-1.34-1.94-2.53-2.22v-.42h3.6c1.31,0,2.49.79,2.99,2l6.3,15.35c.31.75,1.36.75,1.67,0l6.39-15.37c.51-1.22,1.7-2,3.01-1.99.47,0,.84.4.84.87v20.13c0,1.65,1.37,1.94,2.53,2.22Z"/>
          <path class="cls-1" d="M295.18,155.04c-.91,0-1.3.49-1.44,1.23h-.42v-6.83h.42c.42,2.05,1.87,4.36,4.29,5.42,1.39.61,2.6.6,2.92.6.77-.02,2.81-.07,4.24-1.7.15-.18,1.52-1.77,1.18-3.89-.21-1.34-.99-2.2-1.27-2.5-1.16-1.25-2.31-1.3-4.84-2.16-3.22-1.1-4.83-1.65-5.9-3.15-1.29-1.8-1.08-3.92-1.03-4.33.05-.43.28-2.04,1.54-3.5,2.06-2.39,5.17-2.39,6.03-2.35,1.25.06,2.44.44,2.94.61.82.27,1.62.62,2.67,1.07.6.26,1.44.65,1.44.65,0,0,.45.64.26,1.18-.27.78-1.04,1.92-1.54,2.48-.59-2.31-1.6-3.78-2.94-4.53-1.07-.6-2.11-.61-2.53-.61-.33,0-2.66.07-3.93,1.82-.96,1.32-1.16,3.39-.33,4.86,1.98,3.52,8.37.89,11.68,5.09,1.35,1.72,1.56,3.78,1.58,4.04.06.61.2,2.48-.92,4.36-1.58,2.65-4.39,3.25-4.88,3.34,0,0-2.64.74-5.29,0-.76-.21-1.04-.31-1.04-.31-1.46-.5-1.93-.9-2.88-.9Z"/>
        </g>
      </g>
    </g>
  </g>
</svg>