<?xml version="1.0" encoding="UTF-8"?>
<svg id="Layer_2" data-name="Layer 2" xmlns="http://www.w3.org/2000/svg" viewBox="0 0 588.92 46.91">
  <defs>
    <style>
      .cls-1 {
        fill: #231f20;
      }
    </style>
  </defs>
  <g id="Layer_12" data-name="Layer 12">
    <g>
      <path class="cls-1" d="M382.91.91v.8c2.2.47,5.48,1.07,5.48,4.21v29.32l-21.52-30.06c-1.92-2.68-5.01-4.27-8.31-4.27h-4.9v.8c2.27.53,4.81,1.07,4.81,4.21v34.86c0,1.83-.86,2.78-2.03,3.35-1.73.85-3.82.85-5.55,0-1.17-.58-2.03-1.52-2.03-3.35V6.46c0-3.06-2.48-5.54-5.54-5.54h-5.54v.8c2.2.53,4.81,1.07,4.81,4.21v34.33c0,3.06,2.48,5.54,5.54,5.54h17.3v-.8c-2.2-.4-5.48-1.07-5.48-4.21V10.81c0-1.59,2.04-2.24,2.96-.95l25.17,35.21c.41.58,1.08.92,1.79.92V5.92c0-3.14,2.54-3.67,4.81-4.21v-.8h-11.75Z"/>
      <g>
        <path class="cls-1" d="M76.01,23.45c0-13.96,10.95-23.04,23.64-23.04s23.64,9.08,23.64,23.04-10.95,23.04-23.64,23.04-23.64-9.08-23.64-23.04ZM99.65,45.16c12.02,0,16.36-8.42,16.36-21.71S111.67,1.75,99.65,1.75s-16.36,8.42-16.36,21.71,4.34,21.71,16.36,21.71Z"/>
        <path class="cls-1" d="M22.44,21.78c4.94-.8,10.08-4.61,10.08-10.95S27.32,1.01,17.16,1.01H0v.8c2.27.53,4.81,1.07,4.81,4.21v34.86c0,3.14-2.54,3.67-4.81,4.21v.8h19.7c9.75,0,15.76-4.68,15.76-12.22,0-6.48-4.47-11.42-13.02-11.89ZM15.76,2.35c6.21,0,10.02,3.01,10.02,9.08,0,2.64-.72,4.89-1.99,6.6s-3.4,2.75-5.58,3.06c-2.77.39-5.22,1.62-6.99,3.37V2.35h4.54ZM19.37,44.63h-3.34c-2.82.03-5.63.05-8.45.08.01,0,.02,0,.04-.01,2.16-.79,3.6-2.85,3.6-5.15v-12.68s0,0,0,0c.58-.56,1.12-.98,1.57-1.29.67-.47,1.48-.94,2.44-1.33.21-.09.42-.17.63-.24,3-1.06,6.37-.86,8.98.97.51.36,1.01.78,1.47,1.3,2.35,2.6,2.34,5.74,2.34,7.54,0,6.75-3.27,10.82-9.28,10.82Z"/>
        <path class="cls-1" d="M63.5,40.99l-7.41-12.69c-.25-.37-.86-1.14-1.93-1.57-.12-.05-2.13-.81-3.88.4-.01,0-.02.01-.03.02-.93.66-1.42,1.78-1.41,2.92.05,3.5.06,7.05.04,10.64,0,.02,0,.03,0,.05-.02,2.75-2.26,4.96-5.01,4.96h-6.08c-.06-.47-.04-.31-.09-.78,2.29-.54,4.9-1.05,4.9-4.23V5.86c0-3.14-2.54-3.67-4.81-4.21v-.8h17.23c11.49,0,16.83,4.41,16.83,11.29,0,9.68-9.35,11.96-12.56,12.36,1.07.6,2.87,1.94,4.54,4.81l5.74,9.88c1.67,2.87,3.07,4.61,6.08,4.61.8,0,1.74-.13,2.81-.4v1c-1.6.94-4.27,1.67-6.68,1.67-3.21,0-6.08-1.34-8.28-5.08ZM52.67,24.29c1.96-.76,2.96-.47,5.42-1.16,1.83-.51,3.42-.96,4.76-2.14,2.86-2.54,2.73-6.88,2.66-8.46-.09-1.99-.21-4.72-2.2-7.06-3.39-3.98-9.17-3.24-9.69-3.16h-4.74c-.02,8.18-.04,16.36-.07,24.54.78-.78,2.05-1.86,3.86-2.57Z"/>
        <path class="cls-1" d="M267.94,40.99l-7.41-12.69c-.25-.37-.86-1.14-1.93-1.57-.12-.05-2.13-.81-3.88.4-.01,0-.02.01-.03.02-.93.66-1.42,1.78-1.41,2.92.05,3.5.06,7.05.04,10.64,0,.02,0,.03,0,.05-.02,2.75-2.26,4.96-5.01,4.96h-6.08c-.06-.47-.04-.31-.09-.78,2.29-.54,4.9-1.05,4.9-4.23V5.86c0-3.14-2.54-3.67-4.81-4.21v-.8h17.23c11.49,0,16.83,4.41,16.83,11.29,0,9.68-9.35,11.96-12.56,12.36,1.07.6,2.87,1.94,4.54,4.81l5.74,9.88c1.67,2.87,3.07,4.61,6.08,4.61.8,0,1.74-.13,2.81-.4v1c-1.6.94-4.27,1.67-6.68,1.67-3.21,0-6.08-1.34-8.28-5.08ZM257.11,24.29c1.96-.76,2.96-.47,5.42-1.16,1.83-.51,3.42-.96,4.76-2.14,2.86-2.54,2.73-6.88,2.66-8.46-.09-1.99-.21-4.72-2.2-7.06-3.39-3.98-9.17-3.24-9.69-3.16h-4.74c-.02,8.18-.04,16.36-.07,24.54.78-.78,2.05-1.86,3.86-2.57Z"/>
        <path class="cls-1" d="M201.4,1.81v-.8h-6.11c-2.75,0-4.98,2.23-4.98,4.98,0,3.73,0,7.46,0,11.19h0c-.52,2.01-2.84,2.98-6.24,3.96l-11.49,3.32c-3.4.98-5.73,2.98-6.24,5.27,0,0,0,0,0,0V6.02c0-3.14,2.6-3.67,4.81-4.21v-.8h-40.99c-2.33,0-4.21,1.89-4.21,4.21v6.94h.8c.87-4.57,3.65-10.44,10.57-10.35,2.3.03,4.13,1.97,4.13,4.27v34.2c0,4.14-4.41,4.27-6.68,4.81v.8h19.64v-.8c-2.27-.53-6.68-.67-6.68-4.81V5.12c0-1.83-1.49-3.31-3.32-3.3-.2,0,2.33,0,7.59,0h2.45c1.15,0,2.31.19,3.36.67,1.29.6,2.26,1.59,2.26,3.53v34.86c0,3.14-2.54,3.67-4.81,4.21v.8h6.11c2.71,0,4.92-2.19,4.93-4.91l.05-10.33h0c.52-2.03,2.84-2.97,6.24-3.95l11.49-3.32c3.4-.98,5.73-2.98,6.24-5.27,0,0,0,0,0,0v22.77c0,3.14-2.54,3.67-4.81,4.21v.8h15.9v-.8c-2.2-.53-4.81-1.07-4.81-4.21V6.02c0-3.14,2.6-3.67,4.81-4.21Z"/>
        <path class="cls-1" d="M210.19,40.93c0-10.4-.01-20.79-.02-31.19,0-4.8,3.88-8.69,8.68-8.69h9.5c1.12-.03,2.24-.06,3.36-.08,2.87-.07,5.24,2.23,5.24,5.11v5.8s-.79,0-.79,0c-1.1-4.63-2.38-11.46-16.5-8.94-1.76.31-3.2,2.05-3.2,3.84v14.32s4.37,0,4.37,0c2.87,0,4.47.46,4.81-2.75h.8v6.87h-.8c-.33-3.21-1.94-2.79-4.81-2.79h-4.37c-.04,6.25-.08,12.49-.12,18.74-.01,1.9-1.56,3.44-3.46,3.44h0,13.6c9.62,0,10.02-6.28,10.95-8.75h.8v4.97c0,2.83-2.29,5.12-5.12,5.12h-27.74v-.8c2.27-.53,4.81-1.07,4.81-4.21Z"/>
        <path class="cls-1" d="M288.8,43.98c-1.74,0-2.47.94-2.74,2.34h-.8v-12.96h.8c.79,3.9,3.55,8.27,8.15,10.29,2.64,1.16,4.94,1.15,5.54,1.13,1.47-.04,5.33-.14,8.05-3.23.29-.33,2.88-3.37,2.24-7.39-.41-2.54-1.88-4.17-2.41-4.74-2.21-2.38-4.38-2.47-9.19-4.11-6.11-2.08-9.17-3.12-11.2-5.98-2.44-3.42-2.05-7.44-1.96-8.22.09-.81.53-3.87,2.93-6.64C292.14-.05,298.03-.06,299.67.02c2.38.11,4.63.84,5.58,1.15,1.55.51,3.07,1.17,5.07,2.04,1.13.49,2.73,1.23,2.73,1.23,0,0,.85,1.22.5,2.24-.51,1.48-1.98,3.65-2.93,4.7-1.12-4.39-3.03-7.17-5.59-8.59-2.04-1.13-4.01-1.17-4.8-1.16-.62,0-5.05.14-7.47,3.45-1.83,2.51-2.2,6.44-.64,9.22,3.76,6.68,15.9,1.68,22.17,9.66,2.56,3.26,2.96,7.18,3.01,7.67.1,1.15.39,4.71-1.75,8.29-3,5.02-8.34,6.17-9.26,6.35,0,0-5.01,1.41-10.05,0-1.44-.4-1.97-.59-1.97-.59-2.77-.94-3.66-1.71-5.46-1.71Z"/>
      </g>
      <g>
        <path class="cls-1" d="M484.54,40.99l-7.41-12.69c-.25-.37-.86-1.14-1.93-1.57-.12-.05-2.13-.81-3.88.4-.01,0-.02.01-.03.02-.93.66-1.42,1.78-1.41,2.92.05,3.5.06,7.05.04,10.64,0,.02,0,.03,0,.05-.02,2.75-2.26,4.96-5.01,4.96h-6.08c-.06-.47-.04-.31-.09-.78,2.29-.54,4.9-1.05,4.9-4.23V5.86c0-3.14-2.54-3.67-4.81-4.21v-.8h17.23c11.49,0,16.83,4.41,16.83,11.29,0,9.68-9.35,11.96-12.56,12.36,1.07.6,2.87,1.94,4.54,4.81l5.74,9.88c1.67,2.87,3.07,4.61,6.08,4.61.8,0,1.74-.13,2.81-.4v1c-1.6.94-4.27,1.67-6.68,1.67-3.21,0-6.08-1.34-8.28-5.08ZM473.72,24.29c1.96-.76,2.96-.47,5.42-1.16,1.83-.51,3.42-.96,4.76-2.14,2.86-2.54,2.73-6.88,2.66-8.46-.09-1.99-.21-4.72-2.2-7.06-3.39-3.98-9.17-3.24-9.69-3.16h-4.74c-.02,8.18-.04,16.36-.07,24.54.78-.78,2.05-1.86,3.86-2.57Z"/>
        <path class="cls-1" d="M417.03,45.97c-1.05,0-1.74-1.08-1.32-2.04l2.47-5.63L433.01.9c.78.15,1.43.67,1.75,1.4l15.75,36.01c2.14,4.81,3.81,6.41,6.28,6.88v.8h-18.17v-.8c5.68-.67,6.95-2.94,4.68-8.21-1.52-3.55-4.06-9.57-5.58-13.12l1.46,3.46c.5,1.19-.37,2.51-1.67,2.51h-8.84c-3.33,0-6.31,2.02-7.58,5.09-.24.59-.51,1.13-.9,2.19-1.16,3.17-1.78,4.86-1.08,6.19.17.31.9,1.55,3.57,1.92-.01.26-.02.52-.04.78l-5.6-.03ZM436.92,22.31l-4.91-11.4c-.29-.68-1.27-.67-1.54.03-2.73,6.95-5.8,14.82-8.46,21.59l.63-1.61c.58-1.5,2.03-2.49,3.64-2.49h6.62c3.15,0,5.27-3.22,4.02-6.11Z"/>
        <path class="cls-1" d="M553.09,45.09v.8h-15.9v-.8c2.61-.61,5.57-1.23,4.63-5.79.06-10.58.13-21.15.19-31.73,0-.77.24-1.56.77-2.12s1.33-.95,2.18-.97c0,0,.02,0,.02,0h-.19c-1.36.04-2.58.87-3.1,2.13-2.59,6.23-5.18,12.47-7.76,18.7-3.69,8.9-6.61,15.93-6.61,15.93,0,0,0,0,0,0-1.3,2.07-4.4,1.81-5.34-.45l-14.5-34.98v35.06c0,3.14,3.27,3.81,5.48,4.21v.8h-11.75v-.8c2.27-.53,4.81-1.07,4.81-4.21V6.02c0-3.14-2.54-3.67-4.81-4.21v-.8h6.84c2.49,0,4.73,1.5,5.67,3.8l11.95,29.15c.58,1.42,2.59,1.42,3.18,0l12.13-29.18c.96-2.31,3.22-3.8,5.72-3.78.89,0,1.59.76,1.59,1.65v38.22c0,3.14,2.6,3.67,4.81,4.21Z"/>
        <path class="cls-1" d="M560.36,43.98c-1.74,0-2.47.94-2.74,2.34h-.8v-12.96h.8c.79,3.9,3.55,8.27,8.15,10.29,2.64,1.16,4.94,1.15,5.54,1.13,1.47-.04,5.33-.14,8.05-3.23.29-.33,2.88-3.37,2.24-7.39-.41-2.54-1.88-4.17-2.41-4.74-2.21-2.38-4.38-2.47-9.19-4.11-6.11-2.08-9.17-3.12-11.2-5.98-2.44-3.42-2.05-7.44-1.96-8.22.09-.81.53-3.87,2.93-6.64C563.69-.05,569.59-.06,571.22.02c2.38.11,4.63.84,5.58,1.15,1.55.51,3.07,1.17,5.07,2.04,1.13.49,2.73,1.23,2.73,1.23,0,0,.85,1.22.5,2.24-.51,1.48-1.98,3.65-2.93,4.7-1.12-4.39-3.03-7.17-5.59-8.59-2.04-1.13-4.01-1.17-4.8-1.16-.62,0-5.05.14-7.47,3.45-1.83,2.51-2.2,6.44-.64,9.22,3.76,6.68,15.9,1.68,22.17,9.66,2.56,3.26,2.96,7.18,3.01,7.67.1,1.15.39,4.71-1.75,8.29-3,5.02-8.34,6.17-9.26,6.35,0,0-5.01,1.41-10.05,0-1.44-.4-1.97-.59-1.97-.59-2.77-.94-3.66-1.71-5.46-1.71Z"/>
      </g>
    </g>
  </g>
</svg>