<svg width="32" height="32" viewBox="0 0 32 32" fill="none" xmlns="http://www.w3.org/2000/svg">
<path d="M2.66797 25.3332C2.66797 27.5998 4.4013 29.3332 6.66797 29.3332H25.3346C27.6013 29.3332 29.3346 27.5998 29.3346 25.3332V14.6665H2.66797V25.3332ZM25.3346 5.33317H22.668V3.99984C22.668 3.19984 22.1346 2.6665 21.3346 2.6665C20.5346 2.6665 20.0013 3.19984 20.0013 3.99984V5.33317H12.0013V3.99984C12.0013 3.19984 11.468 2.6665 10.668 2.6665C9.86797 2.6665 9.33463 3.19984 9.33463 3.99984V5.33317H6.66797C4.4013 5.33317 2.66797 7.0665 2.66797 9.33317V11.9998H29.3346V9.33317C29.3346 7.0665 27.6013 5.33317 25.3346 5.33317Z" fill="black"/>
</svg>
