<svg width="32" height="32" viewBox="0 0 32 32" fill="none" xmlns="http://www.w3.org/2000/svg">
<path d="M16.0013 15.3332C15.1172 15.3332 14.2694 14.982 13.6443 14.3569C13.0192 13.7317 12.668 12.8839 12.668 11.9998C12.668 11.1158 13.0192 10.2679 13.6443 9.64281C14.2694 9.01769 15.1172 8.6665 16.0013 8.6665C16.8854 8.6665 17.7332 9.01769 18.3583 9.64281C18.9834 10.2679 19.3346 11.1158 19.3346 11.9998C19.3346 12.4376 19.2484 12.871 19.0809 13.2754C18.9134 13.6799 18.6679 14.0473 18.3583 14.3569C18.0488 14.6664 17.6813 14.9119 17.2769 15.0794C16.8725 15.247 16.439 15.3332 16.0013 15.3332ZM16.0013 2.6665C13.5259 2.6665 11.152 3.64983 9.40164 5.40017C7.6513 7.15051 6.66797 9.52448 6.66797 11.9998C6.66797 18.9998 16.0013 29.3332 16.0013 29.3332C16.0013 29.3332 25.3346 18.9998 25.3346 11.9998C25.3346 9.52448 24.3513 7.15051 22.601 5.40017C20.8506 3.64983 18.4767 2.6665 16.0013 2.6665Z" fill="black"/>
</svg>
