<svg width="32" height="32" viewBox="0 0 32 32" fill="none" xmlns="http://www.w3.org/2000/svg">
<path d="M16.3737 23.46C20.6977 23.46 24.2107 20.1435 24.3602 16C24.2107 11.8565 20.6977 8.54004 16.3737 8.54004C12.0497 8.54004 8.53617 11.8565 8.38867 16C8.53567 20.1435 12.0497 23.46 16.3737 23.46Z" fill="black"/>
<path d="M16.3755 5C10.3005 5 5.375 9.925 5.375 16C5.375 22.0745 10.301 27 16.3755 27C22.45 27 27.3755 22.0745 27.3755 16C27.3755 9.925 22.45 5 16.3755 5ZM16.375 24C11.9565 24 8.3745 20.5395 8.3745 16.2695C8.3745 16.1785 8.387 16.09 8.39 16C8.387 15.91 8.3745 15.821 8.3745 15.7305C8.3745 11.4605 11.957 8 16.375 8C20.793 8 24.375 11.4605 24.375 15.7305C24.375 15.821 24.3645 15.91 24.362 16C24.365 16.09 24.375 16.1785 24.375 16.2695C24.3745 20.5395 20.7935 24 16.375 24Z" fill="black"/>
<path d="M1.74071 3.71055C1.86071 3.24005 2.09821 3.70505 2.09821 3.70505C2.09821 3.70505 2.18121 8.57505 2.72121 8.62805C3.26121 8.68105 2.84521 3.61705 3.48421 3.52005C4.07821 3.42555 3.73921 8.70855 4.28021 8.65505C4.81921 8.59805 4.91021 3.73005 4.91021 3.73005C4.91021 3.73005 5.15021 3.26555 5.26871 3.73255C6.73271 9.48755 5.54821 11.84 5.54821 11.84C5.54821 11.84 5.34821 12.3345 4.87321 12.337C4.82871 12.3345 4.86221 26.005 4.85921 27.843C4.86021 28.7365 2.10921 28.709 2.11071 27.8195C2.11271 25.9815 2.16621 12.3125 2.12321 12.3135C1.64671 12.3135 1.44721 11.8195 1.44721 11.8195C1.44721 11.8195 0.267214 9.46855 1.74071 3.71055ZM27.8102 3.50005C28.4292 3.49855 30.9972 5.35005 31.0002 12.231C31.0032 14.4315 29.8027 14.431 29.8047 15.8075C29.8067 17.1815 29.8142 28.1105 29.8142 28.1105C29.8142 28.1105 28.4972 29.014 27.5182 28.0685L27.5002 3.69555C27.5012 3.69605 27.4977 3.49955 27.8102 3.50005Z" fill="black"/>
</svg>
